<svg width="24" height="24" viewBox="0 0 24 24" fill="none" xmlns="http://www.w3.org/2000/svg">
<g filter="url(#filter0_ii_65_777)">
<path d="M11.6167 15.9051C11.6167 16.5759 11.7644 17.2188 12.0599 17.8338C12.3554 18.4487 12.8545 19.1475 13.5573 19.9301L12.4552 20.8645C11.6406 20.0179 11.0537 19.2074 10.6943 18.4327C10.3349 17.658 10.1552 16.8315 10.1552 15.953C10.1552 15.394 10.2391 14.795 10.4068 14.1562C10.5745 13.5173 10.8899 12.6308 11.3531 11.4968C11.7524 10.5864 12.0279 9.86363 12.1797 9.32855C12.3314 8.79346 12.4073 8.30232 12.4073 7.85511C12.4073 7.24815 12.2476 6.66117 11.9281 6.09417C11.6087 5.52718 11.0656 4.86831 10.299 4.11761L11.3052 3.0874C12.2156 3.9499 12.8665 4.74851 13.2578 5.48324C13.6492 6.21794 13.8448 7.00061 13.8448 7.83115C13.8448 8.37419 13.7609 8.95719 13.5932 9.58011C13.4255 10.203 13.126 11.0256 12.6948 12.0478C12.2795 13.0221 11.996 13.7888 11.8443 14.3478C11.6925 14.9069 11.6167 15.4259 11.6167 15.9051ZM16.4802 15.9291C16.4802 16.5999 16.6279 17.2428 16.9234 17.8577C17.2189 18.4726 17.718 19.1714 18.4208 19.9541L17.3188 20.8884C16.5042 20.0419 15.9172 19.2313 15.5578 18.4567C15.1984 17.682 15.0188 16.8554 15.0188 15.977C15.0188 15.4179 15.1026 14.819 15.2703 14.1801C15.438 13.5412 15.7535 12.6548 16.2167 11.5207C16.616 10.6103 16.8915 9.88759 17.0432 9.35251C17.195 8.81742 17.2708 8.32628 17.2708 7.87907C17.2708 7.27211 17.1111 6.68513 16.7917 6.11813C16.4722 5.55113 15.9292 4.89226 15.1625 4.14157L16.1688 3.11136C17.0792 3.97386 17.73 4.77247 18.1214 5.50719C18.5127 6.2419 18.7083 7.02457 18.7083 7.85511C18.7083 8.39815 18.6245 8.98115 18.4568 9.60407C18.2891 10.227 17.9896 11.0496 17.5583 12.0718C17.143 13.0461 16.8596 13.8127 16.7078 14.3718C16.5561 14.9308 16.4802 15.4499 16.4802 15.9291ZM6.75313 15.9291C6.75313 16.5999 6.90086 17.2468 7.19636 17.8697C7.49186 18.4926 7.99096 19.1954 8.69376 19.978L7.59167 20.8884C6.77709 20.0419 6.19011 19.2313 5.83073 18.4567C5.47136 17.682 5.29167 16.8554 5.29167 15.977C5.29167 15.4179 5.37553 14.819 5.54323 14.1801C5.71094 13.5412 6.02638 12.6548 6.48959 11.5207C6.88888 10.6103 7.1644 9.88759 7.31615 9.35251C7.4679 8.81742 7.54376 8.32628 7.54376 7.87907C7.54376 7.27211 7.38405 6.68513 7.06459 6.11813C6.74513 5.55113 6.20209 4.89226 5.43542 4.14157L6.44167 3.11136C7.35209 3.97386 8.00294 4.77247 8.39428 5.50719C8.78561 6.2419 8.98126 7.02457 8.98126 7.85511C8.98126 8.39815 8.8974 8.98115 8.72969 9.60407C8.56198 10.227 8.26251 11.0496 7.83126 12.0718C7.41596 13.0461 7.13249 13.8127 6.98073 14.3718C6.82898 14.9308 6.75313 15.4499 6.75313 15.9291Z" fill="#1F2125" style="fill:#1F2125;fill:color(display-p3 0.1216 0.1294 0.1451);fill-opacity:1;"/>
</g>
<defs>
<filter id="filter0_ii_65_777" x="5.29167" y="2.0874" width="13.4167" height="19.801" filterUnits="userSpaceOnUse" color-interpolation-filters="sRGB">
<feFlood flood-opacity="0" result="BackgroundImageFix"/>
<feBlend mode="normal" in="SourceGraphic" in2="BackgroundImageFix" result="shape"/>
<feColorMatrix in="SourceAlpha" type="matrix" values="0 0 0 0 0 0 0 0 0 0 0 0 0 0 0 0 0 0 127 0" result="hardAlpha"/>
<feOffset dy="1"/>
<feGaussianBlur stdDeviation="0.5"/>
<feComposite in2="hardAlpha" operator="arithmetic" k2="-1" k3="1"/>
<feColorMatrix type="matrix" values="0 0 0 0 0 0 0 0 0 0 0 0 0 0 0 0 0 0 0.25 0"/>
<feBlend mode="normal" in2="shape" result="effect1_innerShadow_65_777"/>
<feColorMatrix in="SourceAlpha" type="matrix" values="0 0 0 0 0 0 0 0 0 0 0 0 0 0 0 0 0 0 127 0" result="hardAlpha"/>
<feOffset dy="-1"/>
<feGaussianBlur stdDeviation="0.5"/>
<feComposite in2="hardAlpha" operator="arithmetic" k2="-1" k3="1"/>
<feColorMatrix type="matrix" values="0 0 0 0 1 0 0 0 0 1 0 0 0 0 1 0 0 0 0.1 0"/>
<feBlend mode="normal" in2="effect1_innerShadow_65_777" result="effect2_innerShadow_65_777"/>
</filter>
</defs>
</svg>
